<svg width="155" height="46" viewBox="0 0 155 46" fill="none" xmlns="http://www.w3.org/2000/svg">
<g clip-path="url(#clip0)">
<path d="M101.6 5.78468e-07H77.3V10.7C72.9 3.9 65.3 -0.0999994 57.3 5.78468e-07H0V45.6H13.1V30.7H35.2C38.4 39.5 47 45.6 57.3 45.6C65.4 45.7 72.9 41.7 77.3 34.9V45.6H90.4V31H92.2L104.7 45.6H120.4L107 30.1C113.7 28.3 118.2 22.2 118 15.3C118 13.9 117.8 12.5 117.5 11.2H127.2V45.6H140.3V11.2H154.6V5.78468e-07H101.6ZM13.1 11.3H36.9C35.4 13.8 34.5 16.5 34 19.3H13L13.1 11.3ZM57.3 33.7C51.3 33.7 47 29 47 22.8C47 16.6 51.3 11.9 57.3 11.9C63.3 11.9 67.6 16.7 67.6 22.8C67.6 28.9 63.3 33.7 57.3 33.7ZM99.1 20.7H90.3V10.8H99.1C102.8 10.8 105.1 12.8 105.1 15.6C105.1 18.4 102.8 20.7 99.1 20.7Z" fill="black"/>
</g>
<defs>
<clipPath id="clip0">
<rect width="154.5" height="45.6" fill="white"/>
</clipPath>
</defs>
</svg>
